<svg xmlns="http://www.w3.org/2000/svg" version="1.1" xmlns:xlink="http://www.w3.org/1999/xlink" xmlns:svgjs="http://svgjs.dev/svgjs" width="1500" height="1500" viewBox="0 0 1500 1500"><rect width="1500" height="1000" fill="#242424"></rect><g transform="matrix(0.6666666666666666,0,0,0.6666666666666666,249.39393939393938,553.077070439947)"><svg viewBox="0 0 396 156" data-background-color="#242424" preserveAspectRatio="xMidYMid meet" height="590" width="1500" xmlns="http://www.w3.org/2000/svg" xmlns:xlink="http://www.w3.org/1999/xlink"><g id="tight-bounds" transform="matrix(1,0,0,1,0.2400000000000091,0.10163646958034178)"><svg viewBox="0 0 395.52 155.79672706083932" height="155.79672706083932" width="395.52"><g><svg viewBox="0 0 395.52 155.79672706083932" height="155.79672706083932" width="395.52"><g><svg viewBox="0 0 395.52 155.79672706083932" height="155.79672706083932" width="395.52"><g id="textblocktransform"><svg viewBox="0 0 395.52 155.79672706083932" height="155.79672706083932" width="395.52" id="textblock"><g><svg viewBox="0 0 395.52 111.72451960030743" height="111.72451960030743" width="395.52"><g transform="matrix(1,0,0,1,0,0)"><svg width="395.52" viewBox="0.55 -36.15 130.98999999999998 36.75" height="111.72451960030743" data-palette-color="#6936f5"><g class="wordmark-text-0" data-fill-palette-color="primary" id="text-0"><path d="M10.45 0L0.55-34.3 5.55-34.3 12.45-10.1Q12.8-8.95 13.75-4.85L13.75-4.85 14-4.85 15-10.1 20.3-34.3 27.1-34.3 32.6-10.1 33.65-4.85 33.9-4.85Q34.9-8.95 35.25-10.1L35.25-10.1 41.9-34.3 46.65-34.3 36.75 0 30.2 0 24.8-24.05Q24.35-26.15 23.65-29.65L23.65-29.65 23.4-29.65Q22.8-25.85 22.4-24.05L22.4-24.05 17 0 10.45 0ZM50.55-31.4L50.55-36.15 54.9-36.15 54.9-31.4 50.55-31.4ZM50.55 0L50.55-26.3 54.95-26.3 54.95 0 50.55 0ZM61.65 0L61.65-36.15 66.05-36.15 66.05 0 61.65 0ZM73.34 0L73.34-34.3 91.19-34.3Q96.34-34.3 99.09-31.65 101.84-29 101.84-24.55L101.84-24.55Q101.84-21.05 100.17-18.5 98.49-15.95 95.54-14.85L95.54-14.85 103.44 0 98.14 0 90.69-14.15 78.09-14.15 78.09 0 73.34 0ZM78.09-18.3L90.94-18.3Q93.74-18.3 95.39-19.95 97.04-21.6 97.04-24.5L97.04-24.5Q97.04-27.2 95.49-28.68 93.94-30.15 90.94-30.15L90.94-30.15 78.09-30.15 78.09-18.3ZM119.39 0.6Q113.34 0.6 110.29-2.78 107.24-6.15 107.24-13.15L107.24-13.15Q107.24-20.15 110.29-23.53 113.34-26.9 119.39-26.9L119.39-26.9Q125.44-26.9 128.49-23.53 131.54-20.15 131.54-13.15L131.54-13.15Q131.54-6.15 128.49-2.78 125.44 0.6 119.39 0.6L119.39 0.6ZM119.39-3.05Q123.39-3.05 125.19-5.38 126.99-7.7 126.99-12.95L126.99-12.95 126.99-13.35Q126.99-18.6 125.19-20.93 123.39-23.25 119.39-23.25L119.39-23.25Q115.39-23.25 113.59-20.93 111.79-18.6 111.79-13.35L111.79-13.35 111.79-12.95Q111.79-7.7 113.59-5.38 115.39-3.05 119.39-3.05L119.39-3.05Z" fill="#6936f5" data-fill-palette-color="primary"></path></g></svg></g></svg></g><g transform="matrix(1,0,0,1,0,138.0999972894696)"><svg viewBox="0 0 232.209792 17.69672977136972" height="17.69672977136972" width="232.209792"><g transform="matrix(1,0,0,1,0,0)"><svg width="232.209792" viewBox="3.25 -36 485.47 37" height="17.69672977136972" data-palette-color="#ffffff"><path d="M23.25-26L23.25-22.5 17.25-22.5Q13.85-22.5 12.05-20.68 10.25-18.85 10.25-15.25L10.25-15.25 10.25 0 3.25 0 3.25-15.25Q3.25-20.35 6.48-23.18 9.7-26 15.75-26L15.75-26 23.25-26ZM40.75-2.5L40.75-2.5Q43.2-2.5 45.32-3.35 47.45-4.2 49.5-5.75L49.5-5.75 51.5-2.75Q50.55-1.9 49.27-1.2 48-0.5 46.52-0.03 45.05 0.45 43.45 0.73 41.85 1 40.25 1L40.25 1Q36.7 1 33.77 0.08 30.85-0.85 28.8-2.63 26.75-4.4 25.62-7 24.5-9.6 24.5-13L24.5-13Q24.5-16.35 25.57-18.98 26.65-21.6 28.57-23.38 30.5-25.15 33.15-26.08 35.8-27 39-27L39-27Q42-27 44.65-26.1 47.3-25.2 49.25-23.48 51.2-21.75 52.35-19.3 53.5-16.85 53.5-13.75L53.5-13.75 53.5-10.25 32.15-10.25Q32.75-6.1 35.02-4.3 37.3-2.5 40.75-2.5ZM39-23.75L39-23.75Q37.55-23.75 36.3-23.2 35.05-22.65 34.12-21.45 33.2-20.25 32.62-18.35 32.05-16.45 32-13.75L32-13.75 46-13.75Q46-16.35 45.4-18.25 44.8-20.15 43.82-21.38 42.85-22.6 41.57-23.18 40.3-23.75 39-23.75ZM73.25-27L73.25-27Q74.84-27 76.45-26.73 78.05-26.45 79.52-25.98 81-25.5 82.27-24.8 83.55-24.1 84.5-23.25L84.5-23.25 82.5-20.25Q80.45-21.8 78.32-22.65 76.2-23.5 73.75-23.5L73.75-23.5Q71.95-23.5 70.45-22.93 68.95-22.35 67.84-21.08 66.75-19.8 66.12-17.8 65.5-15.8 65.5-13L65.5-13Q65.5-10.2 66.12-8.2 66.75-6.2 67.9-4.93 69.05-3.65 70.67-3.08 72.3-2.5 74.25-2.5L74.25-2.5Q76.7-2.5 78.82-3.35 80.95-4.2 83-5.75L83-5.75 85-2.75Q84.05-1.9 82.77-1.2 81.5-0.5 80.02-0.03 78.55 0.45 76.95 0.73 75.34 1 73.75 1L73.75 1Q70.2 1 67.27 0.08 64.34-0.85 62.3-2.63 60.25-4.4 59.12-7 58-9.6 58-13L58-13Q58-16.35 59.12-18.98 60.25-21.6 62.25-23.38 64.25-25.15 67.05-26.08 69.84-27 73.25-27ZM102.49-2.25L102.49-2.25Q104.09-2.25 105.49-2.85 106.89-3.45 107.94-4.73 108.99-6 109.62-8.05 110.24-10.1 110.24-13L110.24-13Q110.24-15.9 109.62-17.95 108.99-20 107.94-21.28 106.89-22.55 105.49-23.15 104.09-23.75 102.49-23.75L102.49-23.75Q100.89-23.75 99.49-23.15 98.09-22.55 97.04-21.28 95.99-20 95.37-17.95 94.74-15.9 94.74-13L94.74-13Q94.74-10.1 95.37-8.05 95.99-6 97.04-4.73 98.09-3.45 99.49-2.85 100.89-2.25 102.49-2.25ZM102.49-27L102.49-27Q105.84-27 108.67-26.08 111.49-25.15 113.49-23.38 115.49-21.6 116.62-18.98 117.74-16.35 117.74-13L117.74-13Q117.74-9.6 116.62-7 115.49-4.4 113.49-2.63 111.49-0.85 108.67 0.08 105.84 1 102.49 1L102.49 1Q99.09 1 96.29 0.08 93.49-0.85 91.49-2.63 89.49-4.4 88.37-7 87.24-9.6 87.24-13L87.24-13Q87.24-16.35 88.37-18.98 89.49-21.6 91.49-23.38 93.49-25.15 96.29-26.08 99.09-27 102.49-27ZM123.49 0L123.49-26 149.49-26Q156.64-26 160.06-23.43 163.49-20.85 163.49-15.75L163.49-15.75 163.49 0 156.49 0 156.49-15.75Q156.49-19.35 154.69-20.93 152.89-22.5 149.49-22.5L149.49-22.5 146.99-22.5 146.99 0 139.99 0 139.99-22.5 130.49-22.5 130.49 0 123.49 0ZM170.24 0L170.24-26 196.24-26Q203.39-26 206.81-23.43 210.24-20.85 210.24-15.75L210.24-15.75 210.24 0 203.24 0 203.24-15.75Q203.24-19.35 201.44-20.93 199.64-22.5 196.24-22.5L196.24-22.5 193.74-22.5 193.74 0 186.74 0 186.74-22.5 177.24-22.5 177.24 0 170.24 0ZM231.99-2.5L231.99-2.5Q234.44-2.5 236.56-3.35 238.69-4.2 240.74-5.75L240.74-5.75 242.74-2.75Q241.79-1.9 240.51-1.2 239.24-0.5 237.76-0.03 236.29 0.45 234.69 0.73 233.09 1 231.49 1L231.49 1Q227.94 1 225.01 0.08 222.09-0.85 220.04-2.63 217.99-4.4 216.86-7 215.74-9.6 215.74-13L215.74-13Q215.74-16.35 216.81-18.98 217.89-21.6 219.81-23.38 221.74-25.15 224.39-26.08 227.04-27 230.24-27L230.24-27Q233.24-27 235.89-26.1 238.54-25.2 240.49-23.48 242.44-21.75 243.59-19.3 244.74-16.85 244.74-13.75L244.74-13.75 244.74-10.25 223.39-10.25Q223.99-6.1 226.26-4.3 228.54-2.5 231.99-2.5ZM230.24-23.75L230.24-23.75Q228.79-23.75 227.54-23.2 226.29-22.65 225.36-21.45 224.44-20.25 223.86-18.35 223.29-16.45 223.24-13.75L223.24-13.75 237.24-13.75Q237.24-16.35 236.64-18.25 236.04-20.15 235.06-21.38 234.09-22.6 232.81-23.18 231.54-23.75 230.24-23.75ZM277.98-15.75L277.98 0 270.98 0 270.98-15.75Q270.98-19.35 269.18-20.93 267.38-22.5 263.98-22.5L263.98-22.5 257.48-22.5 257.48 0 250.48 0 250.48-26 263.98-26Q271.13-26 274.56-23.43 277.98-20.85 277.98-15.75L277.98-15.75ZM298.73-3.5L304.98-3.5 304.98-22.5 298.73-22.5Q297.03-22.5 295.61-21.98 294.18-21.45 293.16-20.3 292.13-19.15 291.56-17.35 290.98-15.55 290.98-13L290.98-13Q290.98-10.45 291.56-8.65 292.13-6.85 293.16-5.7 294.18-4.55 295.61-4.03 297.03-3.5 298.73-3.5L298.73-3.5ZM311.98 0L298.73 0Q295.28 0 292.46-0.9 289.63-1.8 287.63-3.5 285.63-5.2 284.56-7.6 283.48-10 283.48-13L283.48-13Q283.48-16 284.56-18.4 285.63-20.8 287.63-22.5 289.63-24.2 292.46-25.1 295.28-26 298.73-26L298.73-26 304.98-26 304.98-35 311.98-35 311.98 0ZM336.48 0L336.48-26 362.48-26Q369.63-26 373.05-23.43 376.48-20.85 376.48-15.75L376.48-15.75 376.48 0 369.48 0 369.48-15.75Q369.48-19.35 367.68-20.93 365.88-22.5 362.48-22.5L362.48-22.5 359.98-22.5 359.98 0 352.98 0 352.98-22.5 343.48-22.5 343.48 0 336.48 0ZM383.22-10.25L383.22-26 390.22-26 390.22-10.25Q390.22-6.65 392.02-5.08 393.82-3.5 397.22-3.5L397.22-3.5 403.72-3.5 403.72-26 410.72-26 410.72 0 397.22 0Q390.07 0 386.65-2.58 383.22-5.15 383.22-10.25L383.22-10.25ZM423.72-20.5L423.72-20.5Q423.72-19.35 424.75-18.4 425.77-17.45 428.22-16.75L428.22-16.75 435.97-14.5Q439.57-13.45 441.52-11.65 443.47-9.85 443.47-7L443.47-7Q443.47-5.2 442.72-3.73 441.97-2.25 440.27-1.2 438.57-0.15 435.87 0.43 433.17 1 429.22 1L429.22 1Q427.17 1 425.2 0.7 423.22 0.4 421.45-0.13 419.67-0.65 418.22-1.33 416.77-2 415.72-2.75L415.72-2.75 417.72-5.75Q419.82-4.45 422.65-3.48 425.47-2.5 429.22-2.5L429.22-2.5Q432.97-2.5 434.47-3.5 435.97-4.5 435.97-6L435.97-6Q435.97-7.15 434.92-8.08 433.87-9 431.22-9.75L431.22-9.75 423.47-12Q420.27-12.95 418.25-14.73 416.22-16.5 416.22-19.5L416.22-19.5Q416.22-21.1 416.95-22.48 417.67-23.85 419.22-24.85 420.77-25.85 423.17-26.43 425.57-27 428.97-27L428.97-27Q433.12-27 436.5-25.88 439.87-24.75 441.97-23.25L441.97-23.25 439.97-20.25Q437.92-21.55 435.32-22.53 432.72-23.5 428.97-23.5L428.97-23.5Q426.32-23.5 425.02-22.65 423.72-21.8 423.72-20.5ZM455.72-25.5L455.72 0 448.72 0 448.72-25.5 455.72-25.5ZM455.97-32.25L455.97-32.25Q455.97-30.75 454.94-29.63 453.92-28.5 452.22-28.5L452.22-28.5Q450.52-28.5 449.49-29.63 448.47-30.75 448.47-32.25L448.47-32.25Q448.47-33.75 449.49-34.88 450.52-36 452.22-36L452.22-36Q453.87-36 454.92-34.88 455.97-33.75 455.97-32.25ZM476.97-27L476.97-27Q478.57-27 480.17-26.73 481.77-26.45 483.24-25.98 484.72-25.5 485.99-24.8 487.27-24.1 488.22-23.25L488.22-23.25 486.22-20.25Q484.17-21.8 482.04-22.65 479.92-23.5 477.47-23.5L477.47-23.5Q475.67-23.5 474.17-22.93 472.67-22.35 471.57-21.08 470.47-19.8 469.84-17.8 469.22-15.8 469.22-13L469.22-13Q469.22-10.2 469.84-8.2 470.47-6.2 471.62-4.93 472.77-3.65 474.39-3.08 476.02-2.5 477.97-2.5L477.97-2.5Q480.42-2.5 482.54-3.35 484.67-4.2 486.72-5.75L486.72-5.75 488.72-2.75Q487.77-1.9 486.49-1.2 485.22-0.5 483.74-0.03 482.27 0.45 480.67 0.73 479.07 1 477.47 1L477.47 1Q473.92 1 470.99 0.08 468.07-0.85 466.02-2.63 463.97-4.4 462.84-7 461.72-9.6 461.72-13L461.72-13Q461.72-16.35 462.84-18.98 463.97-21.6 465.97-23.38 467.97-25.15 470.77-26.08 473.57-27 476.97-27Z" opacity="1" transform="matrix(1,0,0,1,0,0)" fill="#ffffff" class="slogan-text-1" data-fill-palette-color="secondary" id="text-1"></path></svg></g></svg></g></svg></g></svg></g></svg></g><defs></defs></svg><rect width="395.52" height="155.79672706083932" fill="none" stroke="none" visibility="hidden"></rect></g></svg></g></svg>